<svg xmlns="http://www.w3.org/2000/svg" width="339" height="50" fill="none" viewBox="0 0 339 50">
  <path d="M42.8 2.847A20.9 20.9 0 0 0 30.343 6.97a21.6 21.6 0 0 0-7.703 10.806l-.14.449h3.9l.09-.215a17.76 17.76 0 0 1 7.47-8.88 17.2 17.2 0 0 1 11.254-2.255 17.38 17.38 0 0 1 10.206 5.342 18.02 18.02 0 0 1 4.772 10.642c.374 3.993-.58 8-2.71 11.372a17.56 17.56 0 0 1-9.03 7.217 17.17 17.17 0 0 1-11.469-.038A17.57 17.57 0 0 1 28 34.133c-.1-.153-.19-.306-.28-.47l-.2-.357h-4.09l.24.5q.556 1.22 1.27 2.347a21.4 21.4 0 0 0 8.002 7.497 20.86 20.86 0 0 0 10.59 2.47 20.9 20.9 0 0 0 10.4-3.203 21.47 21.47 0 0 0 7.481-8.038 22 22 0 0 0 2.6-10.763 22 22 0 0 0-2.962-10.664 21.4 21.4 0 0 0-7.75-7.77A20.9 20.9 0 0 0 42.8 2.848" fill="#000"/>
  <path d="m43.79 21.52-7.43-7.581-2.47 2.52 4.32 4.419H6l2.08 3.56H42.6zM43.74 37.602l-2.47-2.52 4.32-4.419H11.7l-2.07-3.57h40.35l1.19 2.928zM327.359 19.158q1.95 1.248 2.239 4.295h-4.341q-.091-.837-.472-1.325-.717-.883-2.438-.883-1.416 0-2.026.441-.594.442-.594 1.036 0 .746.64 1.082.64.35 4.524 1.203 2.59.609 3.885 1.843 1.28 1.25 1.279 3.123 0 2.467-1.843 4.037-1.828 1.554-5.667 1.554-3.915 0-5.788-1.646-1.859-1.66-1.859-4.22h4.403q.137 1.159.594 1.646.807.868 2.986.868 1.28 0 2.025-.38.762-.381.762-1.143 0-.73-.609-1.112-.609-.38-4.524-1.31-2.818-.7-3.976-1.752-1.158-1.036-1.158-2.985 0-2.3 1.798-3.946 1.812-1.66 5.087-1.66 3.108 0 5.073 1.234M310.929 19.158q1.95 1.248 2.24 4.295h-4.342q-.091-.837-.472-1.325-.716-.883-2.437-.883-1.417 0-2.026.441-.594.442-.594 1.036 0 .746.639 1.082.64.35 4.525 1.203 2.59.609 3.884 1.843 1.28 1.25 1.28 3.123 0 2.467-1.844 4.037-1.827 1.554-5.666 1.554-3.915 0-5.789-1.646-1.858-1.66-1.858-4.22h4.402q.137 1.159.594 1.646.808.868 2.986.868 1.28 0 2.026-.38.761-.381.761-1.143 0-.73-.609-1.112-.609-.38-4.524-1.31-2.818-.7-3.976-1.752-1.158-1.036-1.158-2.985 0-2.3 1.798-3.946 1.812-1.66 5.088-1.66 3.107 0 5.072 1.234M297.272 30.125q-.167 1.478-1.538 3.001-2.133 2.422-5.971 2.422-3.169 0-5.591-2.041t-2.422-6.642q0-4.31 2.178-6.61 2.195-2.3 5.682-2.3 2.072 0 3.732.776 1.66.777 2.742 2.452.975 1.479 1.265 3.428.167 1.142.137 3.29h-11.364q.091 2.499 1.569 3.504.898.624 2.163.624 1.341 0 2.178-.761.457-.411.808-1.143zm-4.295-5.088q-.107-1.72-1.051-2.604-.93-.9-2.316-.9-1.507 0-2.346.945-.822.945-1.035 2.56zM280.997 24.352h-4.448a3.9 3.9 0 0 0-.625-1.675q-.73-1.006-2.27-1.006-2.193 0-3.001 2.178-.426 1.158-.426 3.078 0 1.827.426 2.94.777 2.07 2.925 2.071 1.524 0 2.163-.822.64-.823.777-2.133h4.433q-.153 1.98-1.432 3.747-2.042 2.85-6.047 2.849-4.006 0-5.896-2.376-1.888-2.377-1.888-6.17 0-4.28 2.086-6.657Q269.862 18 273.532 18q3.123 0 5.104 1.401 1.995 1.402 2.361 4.951M264.567 24.352h-4.448a3.85 3.85 0 0 0-.625-1.675q-.731-1.006-2.269-1.006-2.194 0-3.001 2.178-.427 1.158-.427 3.078 0 1.827.427 2.94.777 2.07 2.924 2.071 1.524 0 2.164-.822.64-.823.776-2.133h4.433q-.152 1.98-1.432 3.747-2.04 2.85-6.047 2.849t-5.895-2.376q-1.89-2.377-1.889-6.17 0-4.28 2.087-6.657Q253.431 18 257.103 18q3.123 0 5.103 1.401 1.995 1.402 2.361 4.951M242.09 30.384h-8.272L232.264 35h-4.905l8.013-22.454h5.301L248.625 35h-5.088zm-1.31-3.869-2.803-8.835-2.895 8.835zM219.788 30.125q-.168 1.478-1.539 3.001-2.132 2.422-5.971 2.422-3.168 0-5.59-2.041t-2.422-6.642q0-4.31 2.178-6.61 2.193-2.3 5.682-2.3 2.071 0 3.732.776 1.66.777 2.742 2.452.975 1.479 1.264 3.428.168 1.142.137 3.29h-11.364q.091 2.499 1.569 3.504.9.624 2.164.624 1.34 0 2.178-.761.457-.411.807-1.143zm-4.296-5.088q-.106-1.72-1.051-2.604-.929-.9-2.315-.9-1.508 0-2.346.945-.822.945-1.036 2.56zM202.702 22.402q-2.62 0-3.519 1.706-.503.96-.503 2.956V35h-4.371V18.396h4.143v2.894q1.005-1.66 1.752-2.27 1.218-1.02 3.168-1.02.121 0 .198.015.091 0 .381.015v4.448a12 12 0 0 0-1.249-.076M178.549 20.194q1.72-2.194 5.91-2.194 2.727 0 4.844 1.081 2.118 1.082 2.118 4.083v7.616q0 .792.03 1.92.045.853.259 1.157.213.306.64.503V35h-4.722a4.8 4.8 0 0 1-.275-.944 12 12 0 0 1-.122-1.006 9 9 0 0 1-2.071 1.66q-1.402.808-3.169.808-2.254 0-3.732-1.28-1.462-1.294-1.462-3.656 0-3.06 2.361-4.432 1.295-.747 3.808-1.067l1.478-.182q1.203-.153 1.721-.381.93-.396.929-1.234 0-1.02-.716-1.402-.7-.396-2.071-.396-1.539 0-2.179.762-.456.564-.609 1.523h-4.189q.137-2.178 1.219-3.58m3.229 11.668q.61.503 1.493.503 1.401 0 2.574-.823 1.189-.823 1.234-3v-1.616a5 5 0 0 1-.838.427 7.3 7.3 0 0 1-1.142.29l-.975.182q-1.371.244-1.965.594-1.005.594-1.005 1.843 0 1.113.624 1.6M167.682 12.41v3.534q-.306-.015-.595-.015-.288-.015-.7-.016-1.021 0-1.249.564-.23.564-.198 1.767v.305h2.848v3.061h-2.848V35h-4.327V21.61h-2.422V18.55h2.377v-1.067q0-2.65 1.173-3.945 1.05-1.218 4.28-1.219.396 0 .807.03.412.031.854.062m7.007.137V35h-4.326V12.547zM156.763 12.577V35h-4.219v-2.3q-.93 1.477-2.118 2.148-1.188.67-2.955.67-2.909 0-4.905-2.346-1.98-2.361-1.98-6.047 0-4.25 1.95-6.688Q144.501 18 147.776 18q1.508 0 2.681.67a5.2 5.2 0 0 1 1.904 1.828v-7.92zm-11.699 14.228q0 2.3.914 3.67.9 1.387 2.742 1.387t2.803-1.37q.96-1.372.96-3.55 0-3.046-1.539-4.357a3.3 3.3 0 0 0-2.193-.792q-1.905 0-2.803 1.447-.884 1.432-.884 3.565M134.164 32.654q-.06.075-.304.457a3 3 0 0 1-.579.67q-1.021.915-1.981 1.25-.944.334-2.224.334-3.685 0-4.966-2.65-.715-1.463-.715-4.31V18.395h4.448v10.008q0 1.417.335 2.133.594 1.264 2.33 1.264 2.225 0 3.047-1.797.426-.976.426-2.575v-9.033h4.403V35h-4.22zM119.227 20.498q2.102 2.636 2.102 6.23 0 3.657-2.102 6.261-2.102 2.59-6.383 2.59-4.28 0-6.382-2.59-2.103-2.604-2.103-6.26 0-3.596 2.103-6.23 2.101-2.636 6.382-2.636t6.383 2.635m-6.398 1.036q-1.905 0-2.94 1.356-1.02 1.34-1.021 3.838t1.021 3.854q1.035 1.356 2.94 1.356 1.903 0 2.925-1.356 1.02-1.356 1.02-3.854t-1.02-3.838q-1.022-1.356-2.925-1.356M97.727 12.546h4.341V35h-4.341zM92.22 33.324q-2.514 2.3-6.429 2.3-4.844 0-7.616-3.107-2.773-3.123-2.773-8.56 0-5.88 3.154-9.064 2.742-2.773 6.976-2.773 5.667 0 8.287 3.717 1.448 2.087 1.554 4.189H90.68q-.457-1.614-1.173-2.437-1.28-1.463-3.793-1.463-2.56 0-4.037 2.072-1.477 2.057-1.477 5.834 0 3.778 1.553 5.667 1.57 1.875 3.976 1.874 2.468 0 3.763-1.615.716-.868 1.188-2.605h4.646q-.609 3.671-3.108 5.971" fill="#000"/>
</svg>
